<?xml version="1.0" encoding="utf-8"?>
<!-- Generator: Adobe Illustrator 16.0.0, SVG Export Plug-In . SVG Version: 6.00 Build 0)  -->
<!DOCTYPE svg PUBLIC "-//W3C//DTD SVG 1.1//EN" "http://www.w3.org/Graphics/SVG/1.1/DTD/svg11.dtd">
<svg version="1.1" id="圖層_1" xmlns="http://www.w3.org/2000/svg" xmlns:xlink="http://www.w3.org/1999/xlink" x="0px" y="0px"
	 width="219px" height="220px" viewBox="0 0 219 220" enable-background="new 0 0 219 220" xml:space="preserve">
<rect x="-9" y="-9" fill="#FFFFFF" stroke="#000000" stroke-miterlimit="10" width="237" height="237"/>
<g>
	<path fill="#C30D23" d="M110.272,202.005c-50.729,0-92-41.271-92-92c0-50.729,41.271-92,92-92c2.419,0,4.381,1.961,4.381,4.381
		s-1.962,4.381-4.381,4.381c-45.898,0-83.238,37.34-83.238,83.238c0,45.897,37.34,83.238,83.238,83.238s83.237-37.34,83.237-83.238
		l-0.01-0.851c-0.014-2.419,1.936-4.393,4.355-4.407c0.008,0,0.017,0,0.026,0c2.407,0,4.366,1.944,4.38,4.355l0.004,0.343
		c0.004,0.187,0.006,0.373,0.006,0.559C202.271,160.734,161,202.005,110.272,202.005z"/>
	<g>
		<path fill="#C30D23" d="M67.558,139.138c-2.42,0-4.381-1.962-4.381-4.381V85.252c0-2.419,1.961-4.381,4.381-4.381
			c2.419,0,4.38,1.962,4.38,4.381v49.505C71.938,137.176,69.977,139.138,67.558,139.138z"/>
		<path fill="#C30D23" d="M96.034,167.833c-2.419,0-4.381-1.961-4.381-4.381V56.557c0-2.419,1.961-4.381,4.381-4.381
			s4.381,1.961,4.381,4.381v106.896C100.415,165.872,98.453,167.833,96.034,167.833z"/>
		<path fill="#C30D23" d="M124.511,149.434c-2.419,0-4.381-1.961-4.381-4.381V74.958c0-2.42,1.961-4.381,4.381-4.381
			s4.381,1.961,4.381,4.381v70.095C128.892,147.472,126.931,149.434,124.511,149.434z"/>
		<path fill="#C30D23" d="M152.985,134.1c-2.419,0-4.38-1.961-4.38-4.381V90.291c0-2.42,1.961-4.381,4.38-4.381
			c2.42,0,4.381,1.961,4.381,4.381v39.428C157.367,132.139,155.406,134.1,152.985,134.1z"/>
	</g>
</g>
</svg>
