<?xml version="1.0" encoding="utf-8"?>
<!-- Generator: Adobe Illustrator 16.0.0, SVG Export Plug-In . SVG Version: 6.00 Build 0)  -->
<!DOCTYPE svg PUBLIC "-//W3C//DTD SVG 1.1//EN" "http://www.w3.org/Graphics/SVG/1.1/DTD/svg11.dtd">
<svg version="1.1" id="圖層_1" xmlns="http://www.w3.org/2000/svg" xmlns:xlink="http://www.w3.org/1999/xlink" x="0px" y="0px"
	 width="216px" height="215px" viewBox="0 0 216 215" enable-background="new 0 0 216 215" xml:space="preserve">
<g>
	<path fill="#FFFFFF" d="M108,212C50.103,212,3,164.897,3,107C3,49.103,50.103,2,108,2c2.761,0,5,2.239,5,5s-2.239,5-5,5
		c-52.383,0-95,42.617-95,95c0,52.383,42.617,95,95,95s95-42.617,95-95l-0.012-0.971c-0.016-2.761,2.209-5.013,4.971-5.029
		c0.01,0,0.02,0,0.03,0c2.747,0,4.982,2.219,4.999,4.971l0.005,0.392c0.004,0.212,0.007,0.425,0.007,0.638
		C213,164.897,165.897,212,108,212z"/>
	<g>
		<path fill="#FFFFFF" d="M59.25,140.25c-2.761,0-5-2.238-5-5v-56.5c0-2.761,2.239-5,5-5s5,2.239,5,5v56.5
			C64.25,138.012,62.011,140.25,59.25,140.25z"/>
		<path fill="#FFFFFF" d="M91.75,173c-2.761,0-5-2.238-5-5V46c0-2.761,2.239-5,5-5s5,2.239,5,5v122
			C96.75,170.762,94.511,173,91.75,173z"/>
		<path fill="#FFFFFF" d="M124.251,152c-2.762,0-5-2.238-5-5V67c0-2.761,2.238-5,5-5s5,2.239,5,5v80
			C129.251,149.762,127.013,152,124.251,152z"/>
		<path fill="#FFFFFF" d="M156.75,134.5c-2.762,0-5-2.238-5-5v-45c0-2.761,2.238-5,5-5s5,2.239,5,5v45
			C161.75,132.262,159.511,134.5,156.75,134.5z"/>
	</g>
</g>
</svg>
