<?xml version="1.0" encoding="utf-8"?>
<!-- Generator: Adobe Illustrator 16.0.0, SVG Export Plug-In . SVG Version: 6.00 Build 0)  -->
<!DOCTYPE svg PUBLIC "-//W3C//DTD SVG 1.1//EN" "http://www.w3.org/Graphics/SVG/1.1/DTD/svg11.dtd">
<svg version="1.1" id="圖層_1" xmlns="http://www.w3.org/2000/svg" xmlns:xlink="http://www.w3.org/1999/xlink" x="0px" y="0px"
	 width="219px" height="293px" viewBox="0 0 219 293" enable-background="new 0 0 219 293" xml:space="preserve">
<g>
	<g>
		<path fill="#C30D23" d="M110.272,215.005c-57.897,0-105-47.103-105-105c0-57.897,47.103-105,105-105c2.761,0,5,2.239,5,5
			s-2.239,5-5,5c-52.383,0-95,42.617-95,95c0,52.383,42.617,95,95,95s95-42.617,95-95l-0.012-0.971
			c-0.016-2.761,2.209-5.013,4.971-5.029c0.01,0,0.02,0,0.03,0c2.747,0,4.982,2.219,4.999,4.971l0.005,0.392
			c0.004,0.212,0.007,0.425,0.007,0.638C215.271,167.902,168.169,215.005,110.272,215.005z"/>
		<g>
			<path fill="#C30D23" d="M61.522,143.255c-2.761,0-5-2.239-5-5v-56.5c0-2.761,2.239-5,5-5s5,2.239,5,5v56.5
				C66.522,141.016,64.283,143.255,61.522,143.255z"/>
			<path fill="#C30D23" d="M94.022,176.005c-2.761,0-5-2.238-5-5v-122c0-2.761,2.239-5,5-5s5,2.239,5,5v122
				C99.022,173.767,96.783,176.005,94.022,176.005z"/>
			<path fill="#C30D23" d="M126.523,155.005c-2.762,0-5-2.239-5-5v-80c0-2.761,2.238-5,5-5s5,2.239,5,5v80
				C131.523,152.766,129.285,155.005,126.523,155.005z"/>
			<path fill="#C30D23" d="M159.021,137.505c-2.762,0-5-2.239-5-5v-45c0-2.761,2.238-5,5-5s5,2.239,5,5v45
				C164.021,135.266,161.783,137.505,159.021,137.505z"/>
		</g>
	</g>
	<g>
		<path d="M40.648,236.111h9.216l5.832,16.92l5.904-16.92h9.144l-8.784,23.256l6.48,16.271l14.472-39.672h10.8l-20.448,51.12h-8.568
			l-9-21.456l-8.928,21.456H38.2l-20.376-51.12H28.48l14.544,39.672l6.336-16.271L40.648,236.111z"/>
		<path d="M91.264,276.068c0-2.418,0.684-4.54,2.052-6.366s3.276-3.236,5.724-4.233c2.448-0.995,5.256-1.494,8.424-1.494
			c1.584,0,3.191,0.121,4.824,0.36c1.631,0.24,3.047,0.624,4.248,1.152v-2.008c0-2.355-0.708-4.17-2.124-5.443
			c-1.417-1.272-3.517-1.909-6.3-1.909c-2.064,0-4.032,0.36-5.904,1.08s-3.841,1.776-5.904,3.168l-3.096-6.336
			c2.495-1.632,5.051-2.855,7.668-3.672c2.616-0.815,5.364-1.225,8.244-1.225c5.375,0,9.564,1.325,12.564,3.977
			c3,2.65,4.5,6.435,4.5,11.355v11.854c0,0.995,0.18,1.705,0.54,2.13c0.36,0.427,0.947,0.687,1.765,0.781v7.848
			c-0.864,0.144-1.645,0.264-2.34,0.36c-0.697,0.096-1.285,0.144-1.765,0.144c-1.921,0-3.373-0.432-4.356-1.296
			c-0.984-0.864-1.596-1.919-1.836-3.168l-0.216-1.944c-1.633,2.113-3.672,3.744-6.12,4.896c-2.448,1.151-4.944,1.728-7.488,1.728
			c-2.496,0-4.741-0.511-6.732-1.528c-1.992-1.02-3.553-2.419-4.68-4.197C91.828,280.302,91.264,278.299,91.264,276.068z
			 M114.736,277.943c0.528-0.562,0.959-1.123,1.296-1.685c0.335-0.562,0.504-1.076,0.504-1.545v-3.722
			c-1.152-0.468-2.4-0.83-3.744-1.087c-1.345-0.257-2.617-0.387-3.816-0.387c-2.497,0-4.548,0.527-6.156,1.58
			c-1.609,1.053-2.412,2.445-2.412,4.177c0,0.937,0.263,1.826,0.792,2.668c0.528,0.842,1.296,1.521,2.304,2.036
			c1.008,0.515,2.207,0.771,3.6,0.771c1.44,0,2.855-0.269,4.248-0.807C112.744,279.406,113.872,278.739,114.736,277.943z"/>
		<path d="M143.967,287.087l-13.896-37.368h10.008l9.505,28.669l9.575-28.669h9.144l-13.823,37.368H143.967z"/>
		<path d="M183.566,287.087l-13.896-37.368h10.008l9.505,28.669l9.575-28.669h9.145l-13.824,37.368H183.566z"/>
	</g>
</g>
</svg>
